<svg xmlns="http://www.w3.org/2000/svg" viewBox="0 0 40 40">
  <defs>
    <linearGradient id="body" x1="0" y1="0" x2="0" y2="1">
      <stop offset="0%" stop-color="#475E74"/>
      <stop offset="100%" stop-color="#2E4256"/>
    </linearGradient>
    <filter id="shadow">
      <feDropShadow dx="1" dy="1.5" stdDeviation="1.5" flood-color="#000000" flood-opacity="0.45"/>
    </filter>
  </defs>
  <g filter="url(#shadow)" stroke="#9AACBB" stroke-width="1.5" stroke-linecap="round" stroke-linejoin="round" fill="none">
    <path d="M7 12 L7 28 Q7 30 9 30 L28 30 Q30 30 30 28 L30 14 L21 14 L18 11 L9 11 Q7 11 7 12 Z" fill="url(#body)"/>
    <circle cx="31" cy="28" r="6" fill="#3CB4DC" stroke="#9AACBB" stroke-width="1.2"/>
    <path d="M31 24.5 L32 25 L32.5 26 L33.5 26 L33.5 27 L32.5 27.5 L33 28.5 L32 29.5 L31 29 L30 29.5 L29 28.5 L29.5 27.5 L28.5 27 L28.5 26 L29.5 26 L30 25 Z" fill="#1a2a3a" stroke="none"/>
    <circle cx="31" cy="27.5" r="1.2" fill="#3CB4DC" stroke="none"/>
  </g>
</svg>
