<svg xmlns="http://www.w3.org/2000/svg" viewBox="0 0 40 40">
  <defs>
    <linearGradient id="body" x1="0" y1="0" x2="0" y2="1">
      <stop offset="0%" stop-color="#475E74"/>
      <stop offset="100%" stop-color="#2E4256"/>
    </linearGradient>
    <linearGradient id="sec" x1="0" y1="0" x2="0" y2="1">
      <stop offset="0%" stop-color="#3A5066"/>
      <stop offset="100%" stop-color="#2E3F52"/>
    </linearGradient>
    <filter id="shadow">
      <feDropShadow dx="1" dy="1.5" stdDeviation="1.5" flood-color="#000000" flood-opacity="0.45"/>
    </filter>
  </defs>
  <g filter="url(#shadow)" stroke="#9AACBB" stroke-width="1.5" stroke-linecap="round" stroke-linejoin="round" fill="none">
    <path d="M5 14 L5 26 Q5 27 6 27 L18 27 Q19 27 19 26 L19 16 L14 16 L12 14 L6 14 Q5 14 5 14 Z" fill="url(#sec)"/>
    <path d="M21 10 L21 24 Q21 25 22 25 L34 25 Q35 25 35 24 L35 12 L30 12 L28 10 L22 10 Q21 10 21 10 Z" fill="url(#body)"/>
    <line x1="14" y1="30" x2="26" y2="30" stroke="#3CB4DC" stroke-width="2"/>
    <polyline points="23,27 26,30 23,33" stroke="#3CB4DC" stroke-width="2"/>
  </g>
</svg>
