<svg xmlns="http://www.w3.org/2000/svg" viewBox="0 0 40 40">
  <defs>
    <linearGradient id="body" x1="0" y1="0" x2="0" y2="1">
      <stop offset="0%" stop-color="#475E74"/>
      <stop offset="100%" stop-color="#2E4256"/>
    </linearGradient>
    <filter id="shadow">
      <feDropShadow dx="1" dy="1.5" stdDeviation="1.5" flood-color="#000000" flood-opacity="0.45"/>
    </filter>
  </defs>
  <g filter="url(#shadow)" stroke="#9AACBB" stroke-width="1.5" stroke-linecap="round" stroke-linejoin="round" fill="none">
    <polygon points="10,10 11.5,14 16,14.5 12.5,17.5 13.5,22 10,19.5 6.5,22 7.5,17.5 4,14.5 8.5,14" fill="#FFD700" stroke="#9AACBB" stroke-width="1"/>
    <polygon points="20,7 22,12 27,12.5 23,16 24,21 20,18 16,21 17,16 13,12.5 18,12" fill="#FFD700" stroke="#9AACBB" stroke-width="1"/>
    <polygon points="30,10 31.5,14 36,14.5 32.5,17.5 33.5,22 30,19.5 26.5,22 27.5,17.5 24,14.5 28.5,14" fill="url(#body)" stroke="#9AACBB" stroke-width="1"/>
    <line x1="8" y1="28" x2="32" y2="28" stroke="#3CB4DC" stroke-width="2"/>
  </g>
</svg>
